<svg id="visual" viewBox="0 0 1800 1800" width="1800" height="1800" xmlns="http://www.w3.org/2000/svg" xmlns:xlink="http://www.w3.org/1999/xlink" version="1.1"><rect x="0" y="0" width="1800" height="1800" fill="#7fbff1"></rect><defs><linearGradient id="grad1_0" x1="0%" y1="0%" x2="100%" y2="100%"><stop offset="30%" stop-color="#7fbff1" stop-opacity="1"></stop><stop offset="70%" stop-color="#7fbff1" stop-opacity="1"></stop></linearGradient></defs><defs><linearGradient id="grad2_0" x1="0%" y1="0%" x2="100%" y2="100%"><stop offset="30%" stop-color="#7fbff1" stop-opacity="1"></stop><stop offset="70%" stop-color="#7fbff1" stop-opacity="1"></stop></linearGradient></defs><g transform="translate(1800, 0)"><path d="M0 1145.5C-125.1 1058.2 -250.3 971 -378.9 914.6C-507.4 858.3 -639.4 832.9 -761.6 761.6C-883.7 690.2 -996 572.9 -1058.3 438.4C-1120.7 303.8 -1133.1 151.9 -1145.5 0L0 0Z" fill="#643e91"></path></g><g transform="translate(0, 1800)"><path d="M0 -1145.5C114.7 -1050.7 229.4 -955.9 379.6 -916.5C529.9 -877.1 715.7 -893.2 810 -810C904.3 -726.8 907.2 -544.2 947.9 -392.6C988.6 -241.1 1067 -120.5 1145.5 0L0 0Z" fill="#643e91"></path></g></svg>